<svg width="30" height="30" viewBox="0 0 30 30" fill="none" xmlns="http://www.w3.org/2000/svg">
<path d="M19.0899 8.92336C19.1661 9.19288 19.4122 9.37451 19.6875 9.37451C19.9629 9.37451 20.209 9.19288 20.2852 8.92336L21.0938 6.09343L23.9239 5.28488C24.1934 5.20871 24.375 4.96263 24.375 4.68726C24.375 4.41188 24.1934 4.1658 23.9239 4.08963L21.0938 3.28108L20.2852 0.451148C20.209 0.181631 19.9688 0 19.6875 0C19.4063 0 19.1661 0.181631 19.0899 0.451148L18.2813 3.28108L15.4512 4.08963C15.1817 4.1658 15.0001 4.41188 15.0001 4.68726C15.0001 4.96263 15.1817 5.20871 15.4512 5.28488L18.2813 6.09343L19.0899 8.92336ZM6.77941 20.2841L4.42395 17.9873L7.67589 17.5128C8.58995 17.378 9.38682 16.8038 9.79111 15.9718L11.2442 13.0247L12.6973 15.9718C13.1075 16.8038 13.8985 17.378 14.8126 17.5128L18.0645 17.9873L15.7091 20.2841C15.0469 20.9286 14.7481 21.8602 14.9005 22.7683L15.4571 26.0143L12.5567 24.4851C11.7364 24.0515 10.7579 24.0515 9.9376 24.4851L7.03136 26.0143L7.588 22.7742C7.7462 21.8602 7.44151 20.9345 6.77941 20.29V20.2841ZM9.98447 9.22218L7.27159 14.7297L1.20717 15.6144C0.0528775 15.7785 -0.410011 17.1964 0.427876 18.0108L4.81653 22.2996L3.77942 28.352C3.5802 29.5004 4.78723 30.3793 5.81848 29.8344L11.2442 26.9752L16.67 29.8344C17.7012 30.3793 18.9083 29.5004 18.709 28.352L17.6719 22.2996L22.0606 18.0108C22.8926 17.1964 22.4356 15.7785 21.2813 15.6144L15.2169 14.7297L12.504 9.22218C11.9884 8.1734 10.4942 8.1734 9.97861 9.22218H9.98447ZM25.125 14.2493L25.7696 16.5109C25.8281 16.7218 26.0274 16.8741 26.25 16.8741C26.4727 16.8741 26.666 16.7276 26.7305 16.5109L27.375 14.2493L29.6367 13.6048C29.8477 13.5462 30 13.347 30 13.1243C30 12.9017 29.8535 12.7083 29.6367 12.6439L27.375 11.9994L26.7305 9.73777C26.6719 9.52685 26.4727 9.37451 26.25 9.37451C26.0274 9.37451 25.834 9.52099 25.7696 9.73777L25.125 11.9994L22.8633 12.6439C22.6524 12.7025 22.5 12.9017 22.5 13.1243C22.5 13.347 22.6465 13.5403 22.8633 13.6048L25.125 14.2493Z" fill="#FE5C00"/>
</svg>
