<svg width="26" height="30" viewBox="0 0 26 30" fill="none" xmlns="http://www.w3.org/2000/svg">
<path d="M8.66667 13.5V16.5H5.77778V13.5H8.66667ZM14.4444 13.5V16.5H11.5556V13.5H14.4444ZM20.2222 13.5V16.5H17.3333V13.5H20.2222ZM23.1111 3C23.8773 3 24.6121 3.31607 25.1539 3.87868C25.6956 4.44129 26 5.20435 26 6V27C26 27.7956 25.6956 28.5587 25.1539 29.1213C24.6121 29.6839 23.8773 30 23.1111 30H2.88889C1.28556 30 0 28.65 0 27V6C0 5.20435 0.304364 4.44129 0.846136 3.87868C1.38791 3.31607 2.12271 3 2.88889 3H4.33333V0H7.22222V3H18.7778V0H21.6667V3H23.1111ZM23.1111 27V10.5H2.88889V27H23.1111ZM8.66667 19.5V22.5H5.77778V19.5H8.66667ZM14.4444 19.5V22.5H11.5556V19.5H14.4444ZM20.2222 19.5V22.5H17.3333V19.5H20.2222Z" fill="#FE5C00"/>
</svg>
